<svg id="Слой_1" data-name="Слой 1" xmlns="http://www.w3.org/2000/svg" xmlns:xlink="http://www.w3.org/1999/xlink" viewBox="0 0 2053.48 1318.69"><defs><style>.cls-1{mask:url(#mask);}.cls-2{mix-blend-mode:multiply;fill:url(#linear-gradient);}.cls-3{fill:url(#linear-gradient-2);}.cls-4{mask:url(#mask-2);}.cls-38,.cls-5{opacity:0.72;}.cls-5{fill:url(#linear-gradient-3);}.cls-6{fill:#404773;}.cls-7{fill:#eea886;}.cls-8{fill:#c5cddb;}.cls-9{fill:#e55353;}.cls-10{fill:#fac424;}.cls-11{fill:#434343;}.cls-12{fill:#282c47;}.cls-13{fill:#525252;}.cls-14{fill:#d44d4d;}.cls-15{fill:#eddad3;}.cls-16{fill:#a77860;}.cls-17{fill:#939aa3;}.cls-18{fill:#b0b0d9;}.cls-19{fill:url(#linear-gradient-4);}.cls-20{fill:#7a7ab5;}.cls-21{fill:url(#linear-gradient-5);}.cls-22{fill:url(#linear-gradient-6);}.cls-23{fill:#9cb839;}.cls-24{fill:url(#linear-gradient-7);}.cls-25{fill:url(#linear-gradient-8);}.cls-26{fill:url(#linear-gradient-9);}.cls-27{fill:url(#linear-gradient-10);}.cls-28{fill:url(#linear-gradient-11);}.cls-29{fill:url(#linear-gradient-12);}.cls-30{fill:url(#linear-gradient-13);}.cls-31{fill:url(#linear-gradient-14);}.cls-32{fill:url(#linear-gradient-15);}.cls-33{fill:url(#linear-gradient-16);}.cls-34{fill:url(#linear-gradient-17);}.cls-35{fill:#2a2e4a;}.cls-36{fill:url(#linear-gradient-18);}.cls-37{fill:#626eb0;}.cls-38{fill:#d9d9d9;}.cls-39{fill:#8383c9;}.cls-40,.cls-41{fill:none;stroke:#000;stroke-miterlimit:10;stroke-width:2px;}.cls-41{stroke-linecap:round;}.cls-42{filter:url(#luminosity-noclip-2);}.cls-43{filter:url(#luminosity-noclip);}</style><filter id="luminosity-noclip" x="610.94" y="-9192" width="1144.81" height="32766" filterUnits="userSpaceOnUse" color-interpolation-filters="sRGB"><feFlood flood-color="#fff" result="bg"/><feBlend in="SourceGraphic" in2="bg"/></filter><mask id="mask" x="610.94" y="-9192" width="1144.81" height="32766" maskUnits="userSpaceOnUse"><g class="cls-43"/></mask><linearGradient id="linear-gradient" x1="1183.35" y1="1462.76" x2="1183.35" y2="1945.39" gradientUnits="userSpaceOnUse"><stop offset="0"/><stop offset="0.7" stop-color="#fff"/></linearGradient><linearGradient id="linear-gradient-2" x1="1323.57" y1="608.41" x2="914.17" y2="2981.42" gradientUnits="userSpaceOnUse"><stop offset="0" stop-color="#fff4e8"/><stop offset="0.99" stop-color="#cce9ff"/></linearGradient><filter id="luminosity-noclip-2" x="610.94" y="1415.61" width="1144.81" height="231.94" filterUnits="userSpaceOnUse" color-interpolation-filters="sRGB"><feFlood flood-color="#fff" result="bg"/><feBlend in="SourceGraphic" in2="bg"/></filter><mask id="mask-2" x="398.38" y="1066.04" width="1144.81" height="231.94" maskUnits="userSpaceOnUse"><g class="cls-42"><g transform="translate(-212.57 -349.57)"><g class="cls-1"><polygon class="cls-2" points="1435.73 1647.43 1755.76 1415.61 610.94 1415.61 935.64 1647.55 1435.73 1647.43"/></g></g></g></mask><linearGradient id="linear-gradient-3" x1="970.78" y1="1113.18" x2="970.78" y2="1595.82" gradientUnits="userSpaceOnUse"><stop offset="0" stop-color="#e67a56"/><stop offset="0.7" stop-color="#e67a56"/></linearGradient><linearGradient id="linear-gradient-4" x1="1479.86" y1="765.92" x2="1591.12" y2="1014.84" gradientTransform="translate(1896.53 -847.47) rotate(74.77)" gradientUnits="userSpaceOnUse"><stop offset="0" stop-color="#fff"/><stop offset="1" stop-color="#cfcfcf"/></linearGradient><linearGradient id="linear-gradient-5" x1="941.07" y1="107.89" x2="1052.33" y2="356.8" gradientTransform="matrix(1, 0, 0, 1, 0, 0)" xlink:href="#linear-gradient-4"/><linearGradient id="linear-gradient-6" x1="605.19" y1="411.74" x2="716.45" y2="660.65" gradientTransform="matrix(1, 0, 0, 1, 0, 0)" xlink:href="#linear-gradient-4"/><linearGradient id="linear-gradient-7" x1="2007.86" y1="1272.83" x2="2019.6" y2="1272.83" gradientUnits="userSpaceOnUse"><stop offset="0" stop-color="#688027"/><stop offset="1" stop-color="#9cb839"/></linearGradient><linearGradient id="linear-gradient-8" x1="2014.72" y1="1338.29" x2="2033.79" y2="1338.29" xlink:href="#linear-gradient-7"/><linearGradient id="linear-gradient-9" x1="2024.96" y1="1140.14" x2="2164.62" y2="1140.14" xlink:href="#linear-gradient-7"/><linearGradient id="linear-gradient-10" x1="2012.6" y1="1206.31" x2="2147.38" y2="853.58" xlink:href="#linear-gradient-7"/><linearGradient id="linear-gradient-11" x1="2017.61" y1="1369" x2="2081.89" y2="1369" xlink:href="#linear-gradient-7"/><linearGradient id="linear-gradient-12" x1="1839.75" y1="938.67" x2="2000.24" y2="938.67" xlink:href="#linear-gradient-7"/><linearGradient id="linear-gradient-13" x1="1882.16" y1="1105.63" x2="1996.98" y2="1105.63" xlink:href="#linear-gradient-7"/><linearGradient id="linear-gradient-14" x1="1922.95" y1="1309.65" x2="2003.39" y2="1309.65" xlink:href="#linear-gradient-7"/><linearGradient id="linear-gradient-15" x1="1742.44" y1="1418.07" x2="1790.24" y2="1202.04" gradientUnits="userSpaceOnUse"><stop offset="0" stop-color="#806069"/><stop offset="1" stop-color="#e3c496"/></linearGradient><linearGradient id="linear-gradient-16" x1="1573.5" y1="1209.43" x2="1850.72" y2="1083.25" xlink:href="#linear-gradient-15"/><linearGradient id="linear-gradient-17" x1="1845.05" y1="1436.59" x2="2144.73" y2="1637.33" xlink:href="#linear-gradient-15"/><linearGradient id="linear-gradient-18" x1="1758.33" y1="1423.64" x2="1921" y2="1748.99" gradientTransform="translate(-1.82 2.16) rotate(-0.07)" gradientUnits="userSpaceOnUse"><stop offset="0" stop-color="#2a2e4a"/><stop offset="1" stop-color="#484f80"/></linearGradient></defs><path class="cls-3" d="M280.42,790.63C190.7,1015,144.73,1302.33,440,1513.75S1700,1670,2049.75,1475.81s211.17-640.47,32.14-815.34S1667,221.11,1227,421.22,397.93,496.72,280.42,790.63Z" transform="translate(-212.57 -349.57)"/><g class="cls-4"><polygon class="cls-5" points="1223.17 1297.86 1543.19 1066.04 398.38 1066.04 723.08 1297.98 1223.17 1297.86"/></g><path class="cls-6" d="M1567.6,1313.25c-1.85,13-79.78,67.55-95.13,78.45-12.32,8.75-23,12.77-41.65,19.77h0c-42.31,11.13-307.8,90.35-307.8,90.35a33.88,33.88,0,0,0-2.64-8.08c-9.91,4-20.11,6.52-26.59,8.54-9.88,3.09-88.34,5.56-104.4,8.65s-48.19,8-61.16-4.32,8-38.92,25.95-45.72,83.39-8.65,95.13-9.88,27.18-5.56,34.6-3.09c2.34.78,12.69-2.26,25.76-6.78-.32-4.81-.4-7.84-.4-7.84l69.71-20.1-12.91-123.43s30.32-114.28,151.5-27.1c0,0,27,7.95,36.3,10.42a10,10,0,0,0,3.1.09c18.48-1.39,97.91-25.42,126.63-25.42,30.89,0,40.77-1.85,51.89,3.71S1569.46,1300.27,1567.6,1313.25Z" transform="translate(-212.57 -349.57)"/><path class="cls-6" d="M1443.47,1506.61c-13,12.35-45.1,7.41-61.16,4.32s-94.52-5.56-104.4-8.65-28.42-7.41-41.39-16.06a40.94,40.94,0,0,0-6.93-3h0L1210,1497.34l-272.79-86.83c-16.34-4.48-29.31-11.3-37.95-18.81-14.21-12.35-93.28-65.48-95.13-78.45s21-56.22,32.12-61.78,21-3.71,51.89-3.71,120.47,27.8,129.73,25.33c4.22-1.12,12.94-5.56,21.2-10.08,9.91-5.41,19.16-10.92,19.16-10.92,132.68-59.23,147.44,37.68,147.44,37.68l-7.85,119.64s11.06,5.49,25.44,12.32l65.76,18.58-8.61,6.22c3.72,1.2,6.36,1.75,7.42,1.39,7.42-2.47,22.86,1.85,34.6,3.09s77.22,3.09,95.13,9.88S1456.44,1494.25,1443.47,1506.61Z" transform="translate(-212.57 -349.57)"/><path class="cls-6" d="M1039,1263c9.15.64,71,36.45,85.64,45-22.29-11.64-106.84-34.93-106.84-34.93C1022.05,1272,1030.77,1267.53,1039,1263Z" transform="translate(-212.57 -349.57)"/><path class="cls-6" d="M1357,1273.18s-106.51,25.85-126,36.66c.89-.64,56.13-42.61,85.13-48.21,0,0,28.49,9,37.76,11.46a10,10,0,0,0,3.1.09Z" transform="translate(-212.57 -349.57)"/><path class="cls-7" d="M1443.47,1506.61c-13,12.35-45.1,7.41-61.16,4.32s-94.52-5.56-104.4-8.65c-2.84-.89-6.39-1.88-10.33-3h0c-9.75-2.89-21.82-6.86-31.06-13a40.94,40.94,0,0,0-6.93-3l49.36-35.63,1.42-1c3.72,1.2,6.36,1.75,7.42,1.39,7.42-2.47,22.86,1.85,34.6,3.09s77.22,3.09,95.13,9.88S1456.44,1494.25,1443.47,1506.61Z" transform="translate(-212.57 -349.57)"/><path class="cls-8" d="M1443.47,1506.61c-13,12.35-45.1,7.41-61.16,4.32s-94.52-5.56-104.4-8.65c-2.84-.89-6.39-1.88-10.33-3h0s21.6-21.37,11.39-51.68l1.42-1c3.72,1.2,6.36,1.75,7.42,1.39,7.42-2.47,22.86,1.85,34.6,3.09s77.22,3.09,95.13,9.88S1456.44,1494.25,1443.47,1506.61Z" transform="translate(-212.57 -349.57)"/><path class="cls-9" d="M1066.12,1290.28c.14.33.11.57-.1.73C1064.79,1291.93,1065,1291.53,1066.12,1290.28Z" transform="translate(-212.57 -349.57)"/><path class="cls-10" d="M1423.15,1145.84c-1-2.09-57.31-90.61-72.55-131s-51.89-58.9-69.19-64.66c-6.17-2.06-17.17-5.64-28.76-9.39-20.89-6.76-43.72-14.09-43.72-14.09h-72.08s-25,8.37-51.48,17.66l0,0c-24.43,8.57-50.17,17.93-58.86,22.27-18.12,9.06-48.59,73.72-54.77,81.14s-53.69,95.46-60.54,129.31c-5.33,26.29,150.69,103.28,154.95,113.15,4.94-5.48,27.66-27.27,27.66-27.27s-7.28-4.58-17.53-11.32c41.79,1.92,143.92-1.68,158.57-1a73.81,73.81,0,0,0,9.44-.2h0c4.54,3.29,33.78,29.13,33.78,29.13s72.07-29.92,105.22-63.42C1430.31,1168.69,1428.33,1156.34,1423.15,1145.84Zm-409.8,58.57c-15.44-18.54-36.7-29.75-31.35-38s50.66-86.49,50.66-86.49,23.47,51.48,30.06,78.25,6.08,39,3.3,47.36c-2.49,7.47-4.49,12.54-6.74,34.78C1040.81,1227.72,1020.43,1212.9,1013.35,1204.41Zm318.66-8.85c-6.06,6.88-30,22.11-51.57,34.64-1.64-14.93-4.11-38.44-4.38-46.89-.41-12.76,4.94-49.42,11.53-63.42s11.12-52.31,11.12-52.31,54.57,74.14,63.21,82S1352.47,1172.32,1332,1195.56Z" transform="translate(-212.57 -349.57)"/><path class="cls-7" d="M1181.48,728.64s56.37,8.88,47.78,97.07-58.33,81-61.65,80.87-49.94,1.6-53.57-106.07C1114,800.51,1112.45,720.9,1181.48,728.64Z" transform="translate(-212.57 -349.57)"/><path class="cls-7" d="M1230.13,800.8s6.18-6.59,8.44.08-8.42,36.44-8.8,37.83c0,0-1.13,2.59-2.61,1.17S1230.13,800.8,1230.13,800.8Z" transform="translate(-212.57 -349.57)"/><path class="cls-7" d="M1115.56,799.68s-6-6.71-8.44-.08,7.62,36.59,8.07,38c0,0,1.08,2.61,2.58,1.21S1115.56,799.68,1115.56,799.68Z" transform="translate(-212.57 -349.57)"/><path class="cls-11" d="M1230.11,814.32,1222,825.11s.23-23.65-1.07-27.36-3.27-15-4.36-17.71-48.4-15.93-90.19,3.88c0,0,1.83,17-2.17,18.52s-2,27.69-2,27.69l-6.64-7.48s-10.15-67.85-7.65-74.92,10.5-49.59,96.25-24.35c0,0,26.74-5.66,32.1,12.8S1230.11,814.32,1230.11,814.32Z" transform="translate(-212.57 -349.57)"/><path class="cls-12" d="M1098.55,1378.24s-86.28-51.71-124-59.84c-35.61-7.69-48.6-21-48.6-21s56.63,0,94.31,26.77C1045.89,1342.34,1098.55,1378.24,1098.55,1378.24Z" transform="translate(-212.57 -349.57)"/><path class="cls-12" d="M1175.2,1414.29s150.07-78.8,211.34-95.89c35.09-9.79,48.6-21,48.6-21s-92.78,9.06-149.2,43C1259.05,1356.62,1175.2,1414.29,1175.2,1414.29Z" transform="translate(-212.57 -349.57)"/><path class="cls-7" d="M1120.37,1493.74c-9.91,4-20.11,6.52-26.59,8.54-9.88,3.09-88.34,5.56-104.4,8.65s-48.19,8-61.16-4.32,8-38.92,25.95-45.72,83.39-8.65,95.13-9.88,27.18-5.56,34.6-3.09c2.34.78,12.69-2.26,25.76-6.78C1110.06,1449,1120.37,1493.74,1120.37,1493.74Z" transform="translate(-212.57 -349.57)"/><path class="cls-6" d="M1175.2,1486.28l147.53-43.66-29.17-8.91S1175.66,1476.45,1175.2,1486.28Z" transform="translate(-212.57 -349.57)"/><polygon class="cls-12" points="962.64 1136.7 1031.68 1115.64 983.81 1143.44 962.64 1136.7"/><path class="cls-13" d="M1127.78,1309.84l-3.11-1.82A29.34,29.34,0,0,1,1127.78,1309.84Z" transform="translate(-212.57 -349.57)"/><path class="cls-8" d="M1093.78,1502.28c-9.88,3.09-88.34,5.56-104.4,8.65s-48.19,8-61.16-4.32,8-38.92,25.95-45.72,83.39-8.65,95.13-9.88,27.18-5.56,34.6-3.09C1083.9,1447.92,1064.09,1478.19,1093.78,1502.28Z" transform="translate(-212.57 -349.57)"/><path class="cls-14" d="M1252.65,940.82s-23.64,103.85-79.93,103.85-87.38-100.26-87.38-100.26l0,0c26.52-9.29,51.48-17.66,51.48-17.66h72.08S1231.76,934.06,1252.65,940.82Z" transform="translate(-212.57 -349.57)"/><path class="cls-15" d="M1045,1297.39l-22.73-129.32,293.93-6.79-18.93,127.26s-93.82,34.34-125.66,54.37C1171.62,1342.91,1091.14,1309.84,1045,1297.39Z" transform="translate(-212.57 -349.57)"/><path class="cls-7" d="M1209.67,927l-.08-.24c-3.51-7.85-1.8-46.13-1.8-46.13s-71.79-18.27-69.74-4.3-6.18,52.11-6.18,52.11L1095,941s39.24,105.35,84.34,91.76,62.12-95.56,62.12-95.56Z" transform="translate(-212.57 -349.57)"/><path class="cls-16" d="M1137.94,890.49s12.71,16.26,32.79,16.26c13.2,0,23.63-4.61,36.78-17.43,0,0-6.65,25.27-36.69,27.53C1170.82,916.85,1147.88,918.29,1137.94,890.49Z" transform="translate(-212.57 -349.57)"/><ellipse class="cls-17" cx="1072.21" cy="1293.33" rx="889.13" ry="25.36"/><circle class="cls-18" cx="1290.25" cy="467.71" r="132.67"/><circle class="cls-19" cx="1502.82" cy="817.28" r="112.58" transform="translate(106.83 1702.99) rotate(-74.77)"/><path class="cls-20" d="M1498.15,913.6a4.72,4.72,0,0,1,4.72-4.72h0a4.71,4.71,0,0,1,4.72,4.71h0a4.73,4.73,0,0,1-4.71,4.73h0A4.72,4.72,0,0,1,1498.15,913.6Zm-45.79-8.77h0a4.71,4.71,0,0,1-2.36-4.1h0a4.66,4.66,0,0,1,.63-2.35h0a4.72,4.72,0,0,1,6.45-1.72h0a4.7,4.7,0,0,1,2.36,4.1h0a4.75,4.75,0,0,1-.63,2.34h0a4.71,4.71,0,0,1-4.1,2.36h0A4.66,4.66,0,0,1,1452.36,904.83Zm94.57-1.77a4.68,4.68,0,0,1-.64-2.38h0a4.71,4.71,0,0,1,2.36-4.07h0a4.72,4.72,0,0,1,6.45,1.71h0a4.76,4.76,0,0,1,.63,2.35h0a4.73,4.73,0,0,1-2.35,4.1h0a4.63,4.63,0,0,1-2.36.64h0A4.71,4.71,0,0,1,1546.93,903.06Zm-131.57-35.17a4.67,4.67,0,0,1-.64-2.37h0a4.71,4.71,0,0,1,2.35-4.08h0a4.71,4.71,0,0,1,6.45,1.72h0a4.64,4.64,0,0,1,.64,2.37h0a4.73,4.73,0,0,1-2.35,4.08h0a4.73,4.73,0,0,1-2.37.63h0A4.71,4.71,0,0,1,1415.36,867.89Zm168.52,1.63a4.74,4.74,0,0,1-2.35-4.11h0a4.75,4.75,0,0,1,.63-2.34h0a4.71,4.71,0,0,1,6.45-1.72h0a4.7,4.7,0,0,1,2.36,4.1h0a4.61,4.61,0,0,1-.64,2.34h0a4.69,4.69,0,0,1-4.08,2.36h0A4.73,4.73,0,0,1,1583.88,869.52ZM1401.79,817.4a4.72,4.72,0,0,1,4.71-4.73h0a4.73,4.73,0,0,1,4.73,4.72h0a4.72,4.72,0,0,1-4.72,4.72h0A4.71,4.71,0,0,1,1401.79,817.4Zm192.62-.12h0v-.1h0v-.11h0a4.72,4.72,0,0,1,4.71-4.73h0a4.74,4.74,0,0,1,4.73,4.71h0v.12h0v.11h0a4.72,4.72,0,0,1-4.72,4.72h0A4.72,4.72,0,0,1,1594.41,817.28Zm-177.43-44a4.74,4.74,0,0,1-2.37-4.1h0a4.76,4.76,0,0,1,.63-2.35h0a4.72,4.72,0,0,1,6.45-1.72h0a4.7,4.7,0,0,1,2.36,4.09h0a4.66,4.66,0,0,1-.63,2.35h0a4.72,4.72,0,0,1-4.09,2.36h0A4.63,4.63,0,0,1,1417,773.32Zm165.08-2h0a4.78,4.78,0,0,1-.64-2.38h0a4.69,4.69,0,0,1,2.35-4.07h0a4.71,4.71,0,0,1,6.45,1.71h0a4.74,4.74,0,0,1,.64,2.37h0a4.72,4.72,0,0,1-2.35,4.08h0a4.74,4.74,0,0,1-2.37.64h0A4.72,4.72,0,0,1,1582.06,771.32Zm-131.61-35a4.64,4.64,0,0,1-.64-2.37h0a4.74,4.74,0,0,1,2.35-4.08h0a4.72,4.72,0,0,1,6.45,1.72h0a4.62,4.62,0,0,1,.64,2.37h0a4.69,4.69,0,0,1-2.35,4.07h0a4.64,4.64,0,0,1-2.37.64h0A4.71,4.71,0,0,1,1450.45,736.3Zm98,1.56a4.71,4.71,0,0,1-2.37-4.1h0a4.79,4.79,0,0,1,.63-2.35h0a4.73,4.73,0,0,1,6.45-1.73h0a4.72,4.72,0,0,1,2.36,4.1h0a4.69,4.69,0,0,1-.63,2.35h0a4.72,4.72,0,0,1-4.09,2.36h0A4.66,4.66,0,0,1,1548.47,737.86ZM1497.93,721a4.73,4.73,0,0,1,4.71-4.73h0a4.72,4.72,0,0,1,4.73,4.71h0a4.71,4.71,0,0,1-4.71,4.73h0A4.72,4.72,0,0,1,1497.93,721Z" transform="translate(-212.57 -349.57)"/><path class="cls-20" d="M1555.87,753.3a3,3,0,0,1-.45,1.19l-48.52,77.17-80.05-12.81a3.2,3.2,0,1,1,1-6.31l75.88,12.13L1550,751.09a3.2,3.2,0,0,1,5.86,2.21Z" transform="translate(-212.57 -349.57)"/><circle class="cls-18" cx="964.03" cy="159.25" r="132.67"/><circle class="cls-21" cx="964.03" cy="159.25" r="112.58"/><path class="cls-20" d="M1171.93,605.14a4.72,4.72,0,0,1,4.71-4.73h0a4.73,4.73,0,0,1,4.73,4.72h0a4.72,4.72,0,0,1-4.72,4.72h0A4.71,4.71,0,0,1,1171.93,605.14Zm-45.8-8.77h0a4.73,4.73,0,0,1-2.36-4.1h0a4.76,4.76,0,0,1,.63-2.35h0a4.73,4.73,0,0,1,6.45-1.73h0a4.71,4.71,0,0,1,2.36,4.1h0a4.66,4.66,0,0,1-.63,2.35h0a4.71,4.71,0,0,1-4.09,2.36h0A4.69,4.69,0,0,1,1126.13,596.37Zm94.57-1.78a4.74,4.74,0,0,1-.64-2.37h0a4.74,4.74,0,0,1,2.36-4.08h0a4.73,4.73,0,0,1,6.45,1.72h0a4.77,4.77,0,0,1,.64,2.35h0a4.73,4.73,0,0,1-2.36,4.1h0a4.73,4.73,0,0,1-2.36.64h0A4.72,4.72,0,0,1,1220.7,594.59Zm-131.57-35.16a4.77,4.77,0,0,1-.64-2.37h0a4.72,4.72,0,0,1,2.36-4.08h0a4.72,4.72,0,0,1,6.45,1.72h0a4.63,4.63,0,0,1,.63,2.37h0a4.72,4.72,0,0,1-2.35,4.08h0a4.69,4.69,0,0,1-2.36.63h0A4.72,4.72,0,0,1,1089.13,559.43Zm168.53,1.63a4.73,4.73,0,0,1-2.36-4.11h0a4.77,4.77,0,0,1,.64-2.34h0a4.71,4.71,0,0,1,6.44-1.73h0a4.71,4.71,0,0,1,2.36,4.11h0a4.65,4.65,0,0,1-.63,2.34h0a4.73,4.73,0,0,1-4.09,2.36h0A4.69,4.69,0,0,1,1257.66,561.06Zm-182.1-52.12a4.73,4.73,0,0,1,4.72-4.73h0a4.72,4.72,0,0,1,4.72,4.72h0a4.72,4.72,0,0,1-4.71,4.72h0A4.73,4.73,0,0,1,1075.56,508.94Zm192.63-.12h0v-.1h0v-.11h0a4.71,4.71,0,0,1,4.7-4.73h0a4.72,4.72,0,0,1,4.73,4.71h0v.12h0v.11h0a4.72,4.72,0,0,1-4.72,4.72h0A4.71,4.71,0,0,1,1268.19,508.82Zm-177.44-44a4.71,4.71,0,0,1-2.36-4.1h0a4.66,4.66,0,0,1,.63-2.35h0a4.71,4.71,0,0,1,6.44-1.73h0a4.74,4.74,0,0,1,2.37,4.1h0a4.67,4.67,0,0,1-.64,2.35h0a4.72,4.72,0,0,1-4.09,2.36h0A4.66,4.66,0,0,1,1090.75,464.86Zm165.08-2h0a4.69,4.69,0,0,1-.65-2.38h0a4.73,4.73,0,0,1,2.35-4.07h0a4.73,4.73,0,0,1,6.46,1.7h0a4.77,4.77,0,0,1,.63,2.38h0a4.73,4.73,0,0,1-2.34,4.08h0a4.77,4.77,0,0,1-2.37.64h0A4.72,4.72,0,0,1,1255.83,462.86Zm-131.61-35a4.74,4.74,0,0,1-.64-2.37h0a4.75,4.75,0,0,1,2.35-4.08h0a4.72,4.72,0,0,1,6.45,1.71h0a4.68,4.68,0,0,1,.64,2.38h0a4.69,4.69,0,0,1-2.35,4.07h0a4.61,4.61,0,0,1-2.36.64h0A4.72,4.72,0,0,1,1124.22,427.84Zm98,1.56a4.73,4.73,0,0,1-2.36-4.1h0a4.66,4.66,0,0,1,.63-2.35h0a4.71,4.71,0,0,1,6.44-1.73h0a4.71,4.71,0,0,1,2.37,4.1h0a4.73,4.73,0,0,1-.63,2.34h0a4.74,4.74,0,0,1-4.1,2.37h0A4.76,4.76,0,0,1,1222.24,429.4Zm-50.53-16.88a4.72,4.72,0,0,1,4.71-4.73h0a4.71,4.71,0,0,1,4.72,4.71h0a4.72,4.72,0,0,1-4.71,4.73h0A4.71,4.71,0,0,1,1171.71,412.52Z" transform="translate(-212.57 -349.57)"/><path class="cls-20" d="M1256.8,546.91a3.13,3.13,0,0,1-1.26-.26l-83.85-35.71V429.87a3.2,3.2,0,1,1,6.39,0v76.84l80,34.06a3.2,3.2,0,0,1-1.25,6.14Z" transform="translate(-212.57 -349.57)"/><circle class="cls-18" cx="628.15" cy="463.1" r="132.67"/><circle class="cls-22" cx="628.15" cy="463.1" r="112.58"/><path class="cls-20" d="M836.05,909a4.72,4.72,0,0,1,4.72-4.72h0a4.71,4.71,0,0,1,4.72,4.71h0a4.73,4.73,0,0,1-4.72,4.73h0A4.72,4.72,0,0,1,836.05,909Zm-45.8-8.77h0a4.75,4.75,0,0,1-2.36-4.1h0a4.8,4.8,0,0,1,.64-2.35h0a4.72,4.72,0,0,1,6.45-1.72h0a4.72,4.72,0,0,1,2.36,4.1h0a4.8,4.8,0,0,1-.64,2.35h0a4.71,4.71,0,0,1-4.09,2.35h0A4.72,4.72,0,0,1,790.25,900.22Zm94.57-1.77a4.67,4.67,0,0,1-.63-2.38h0a4.71,4.71,0,0,1,2.35-4.07h0a4.72,4.72,0,0,1,6.45,1.71h0a4.7,4.7,0,0,1,.64,2.35h0a4.71,4.71,0,0,1-2.36,4.1h0a4.61,4.61,0,0,1-2.36.64h0A4.72,4.72,0,0,1,884.82,898.45ZM753.26,863.28a4.64,4.64,0,0,1-.64-2.37h0a4.73,4.73,0,0,1,2.35-4.08h0a4.72,4.72,0,0,1,6.45,1.72h0a4.74,4.74,0,0,1,.64,2.37h0A4.74,4.74,0,0,1,759.7,865h0a4.67,4.67,0,0,1-2.36.63h0A4.71,4.71,0,0,1,753.26,863.28Zm168.52,1.63a4.72,4.72,0,0,1-2.35-4.1h0a4.66,4.66,0,0,1,.63-2.35h0a4.72,4.72,0,0,1,6.45-1.72h0a4.72,4.72,0,0,1,2.36,4.1h0a4.77,4.77,0,0,1-.64,2.35h0a4.71,4.71,0,0,1-4.09,2.35h0A4.72,4.72,0,0,1,921.78,864.91ZM739.69,812.79a4.7,4.7,0,0,1,4.71-4.72h0a4.7,4.7,0,0,1,4.72,4.71h0a4.71,4.71,0,0,1-4.71,4.72h0A4.71,4.71,0,0,1,739.69,812.79Zm192.62-.11h0v-.1h0v-.11h0a4.72,4.72,0,0,1,4.71-4.74h0a4.74,4.74,0,0,1,4.73,4.71h0a.62.62,0,0,1,0,.13h0a.37.37,0,0,1,0,.11h0a4.72,4.72,0,0,1-4.72,4.71h0A4.71,4.71,0,0,1,932.31,812.68Zm-177.44-44a4.71,4.71,0,0,1-2.36-4.1h0a4.62,4.62,0,0,1,.63-2.34h0a4.71,4.71,0,0,1,6.45-1.73h0a4.72,4.72,0,0,1,2.36,4.09h0a4.76,4.76,0,0,1-.63,2.35h0a4.72,4.72,0,0,1-4.09,2.36h0A4.69,4.69,0,0,1,754.87,768.71Zm165.09-2h0a4.64,4.64,0,0,1-.64-2.37h0a4.71,4.71,0,0,1,2.34-4.08h0a4.72,4.72,0,0,1,6.46,1.71h0a4.74,4.74,0,0,1,.64,2.37h0a4.76,4.76,0,0,1-2.35,4.08h0a4.74,4.74,0,0,1-2.37.64h0A4.71,4.71,0,0,1,920,766.71Zm-131.61-35a4.62,4.62,0,0,1-.64-2.37h0a4.72,4.72,0,0,1,2.35-4.08h0a4.72,4.72,0,0,1,6.45,1.72h0a4.72,4.72,0,0,1,.64,2.37h0a4.76,4.76,0,0,1-2.35,4.08h0a4.76,4.76,0,0,1-2.37.63h0A4.71,4.71,0,0,1,788.35,731.69Zm98,1.56a4.72,4.72,0,0,1-2.36-4.1h0a4.69,4.69,0,0,1,.63-2.35h0a4.71,4.71,0,0,1,6.44-1.73h0a4.74,4.74,0,0,1,2.37,4.1h0a4.69,4.69,0,0,1-.63,2.35h0a4.72,4.72,0,0,1-4.1,2.36h0A4.66,4.66,0,0,1,886.36,733.25Zm-50.53-16.88a4.71,4.71,0,0,1,4.71-4.72h0a4.71,4.71,0,0,1,4.73,4.71h0a4.72,4.72,0,0,1-4.71,4.72h0A4.72,4.72,0,0,1,835.83,716.37Z" transform="translate(-212.57 -349.57)"/><path class="cls-20" d="M847.33,896.67a3.18,3.18,0,0,1-.39-1.22L837.4,804.8l70.85-39.4a3.2,3.2,0,0,1,3.11,5.59L844.2,808.34l9.1,86.44a3.2,3.2,0,0,1-6,1.89Z" transform="translate(-212.57 -349.57)"/><path class="cls-23" d="M2001.61,1487l-1.82-.09c0-.67,3.51-67.68,2.54-146.46-.89-72.67-5.86-170.49-24.46-223.86l1.73-.6c18.68,53.6,23.66,151.64,24.56,224.45C2005.13,1419.23,2001.64,1486.28,2001.61,1487Z" transform="translate(-212.57 -349.57)"/><path class="cls-23" d="M2028,1487c-.22-4.3-22.29-431.7-50.19-560.35l1.79-.39c27.93,128.8,50,556.34,50.22,560.65Z" transform="translate(-212.57 -349.57)"/><path class="cls-24" d="M2017.78,1501.21c-.2-3.8-19-380.65-4.28-456.75l1.79.34c-14.71,75.89,4.12,452.52,4.31,456.32Z" transform="translate(-212.57 -349.57)"/><path class="cls-25" d="M2016.54,1492.9h-1.82c0-2.12.19-213,17.27-309.22l1.8.32C2016.74,1280.08,2016.54,1490.78,2016.54,1492.9Z" transform="translate(-212.57 -349.57)"/><path class="cls-26" d="M2164.62,1101.13s-35.66-111.05-82.73-50.24c-32.49,42-36.88,84-46.9,116.7a187.3,187.3,0,0,0-7.92,44.05l-2.11,35.95C2127.08,981.05,2164.62,1101.13,2164.62,1101.13Z" transform="translate(-212.57 -349.57)"/><path class="cls-27" d="M2188.4,947.36s18.85-122.67-88.08-68c-102.47,52.41-91,210-91,210,6.14-26.29,27.61-70,64.91-115C2121.35,917.67,2188.4,947.36,2188.4,947.36Z" transform="translate(-212.57 -349.57)"/><path class="cls-28" d="M2081.89,1340.2c-61-12-64.28,40.24-64.28,40.24v19.16C2022.76,1366.59,2081.89,1340.2,2081.89,1340.2Z" transform="translate(-212.57 -349.57)"/><path class="cls-29" d="M1955.7,834c-59.61-44.71-116-21.36-116-21.36s114.6,5.56,158.1,258.11C1997.85,1070.78,2015.32,878.74,1955.7,834Z" transform="translate(-212.57 -349.57)"/><path class="cls-30" d="M1882.16,993.08S1977.75,1117,1997,1218.18l-2.11-23.66S2007.86,997.88,1882.16,993.08Z" transform="translate(-212.57 -349.57)"/><path class="cls-23" d="M1997,1218.18l3.29,36.92A172,172,0,0,0,1997,1218.18Z" transform="translate(-212.57 -349.57)"/><path class="cls-31" d="M1923,1262.92s75.39,78.44,80.44,94.92C2003.39,1357.84,1991.1,1247.59,1923,1262.92Z" transform="translate(-212.57 -349.57)"/><polygon class="cls-32" points="1864.65 1292.17 1891.91 1127.44 1712.4 1127.44 1739.65 1292.17 1864.65 1292.17"/><rect class="cls-33" x="1695.52" y="1083.27" width="213.26" height="44.16"/><path class="cls-34" d="M2104.47,1477H1925l27.26,164.73h30.69s-30-127.86,115.68-129.18Z" transform="translate(-212.57 -349.57)"/><path class="cls-35" d="M1862.08,1465.4l-102-.12a18.8,18.8,0,0,1-18.76-18.8l.08-64.29a18.8,18.8,0,0,1,18.8-18.76l102,.12a18.8,18.8,0,0,1,18.75,18.8l-.07,64.3A18.8,18.8,0,0,1,1862.08,1465.4ZM1760.23,1376a6.19,6.19,0,0,0-6.19,6.17l-.08,64.3a6.19,6.19,0,0,0,6.17,6.18l102,.12a6.18,6.18,0,0,0,6.19-6.17l.07-64.29a6.17,6.17,0,0,0-6.17-6.18Z" transform="translate(-212.57 -349.57)"/><rect class="cls-36" x="1632.91" y="1414.42" width="356.23" height="229.22" transform="translate(-210.74 -351.73) rotate(0.07)"/><rect class="cls-6" x="1632.98" y="1414.42" width="356.23" height="101.78" transform="translate(-210.82 -351.73) rotate(0.07)"/><rect class="cls-37" x="1786.49" y="1492.22" width="49.13" height="14.04" transform="translate(-210.78 -351.73) rotate(0.07)"/><rect class="cls-38" x="1452.57" y="153.84" width="201.22" height="24.03" rx="6.93"/><rect class="cls-38" x="1452.57" y="192.69" width="247.5" height="24.03" rx="7.2"/><rect class="cls-10" x="1303.19" y="129.87" width="106.68" height="106.68" rx="21.18"/><path class="cls-39" d="M1565.45,558.57l-29.6-25.72a5.82,5.82,0,1,1,7.63-8.79l20.94,18.19,29.75-33.3a5.83,5.83,0,1,1,8.69,7.76Z" transform="translate(-212.57 -349.57)"/><rect class="cls-10" x="174.11" y="677.71" width="106.68" height="106.68" rx="21.18"/><path class="cls-39" d="M436.38,1106.41l-29.61-25.72a5.82,5.82,0,0,1,7.64-8.79l20.94,18.19,29.75-33.3a5.83,5.83,0,0,1,8.69,7.76Z" transform="translate(-212.57 -349.57)"/><rect class="cls-10" x="331.29" y="144.08" width="106.68" height="106.68" rx="21.18"/><path class="cls-39" d="M593.55,572.78,564,547.06a5.82,5.82,0,1,1,7.64-8.79l20.93,18.19,29.76-33.3a5.82,5.82,0,1,1,8.68,7.76Z" transform="translate(-212.57 -349.57)"/><rect class="cls-38" x="479.96" y="171.2" width="201.22" height="24.03" rx="6.93"/><rect class="cls-38" x="479.96" y="210.05" width="166.55" height="24.03" rx="5.9"/><rect class="cls-38" x="324.04" y="702.13" width="271.68" height="24.03" rx="8.05"/><rect class="cls-38" x="324.04" y="740.98" width="146.58" height="24.03" rx="5.54"/><rect class="cls-40" x="917.84" y="465" width="29.36" height="20.6" rx="5.52"/><rect class="cls-40" x="970.93" y="463.28" width="29.36" height="20.6" rx="5.52"/><line class="cls-41" x1="901.83" y1="456.79" x2="917.83" y2="475.54"/><line class="cls-41" x1="1018.34" y1="454.65" x2="1000.62" y2="473.16"/><line class="cls-40" x1="947.39" y1="476.64" x2="952.57" y2="470.62"/><line class="cls-40" x1="970.74" y1="477.07" x2="964.99" y2="470.42"/><line class="cls-40" x1="951.8" y1="470.98" x2="965.76" y2="470.75"/></svg>